<?xml version="1.0" encoding="UTF-8" standalone="no"?>
<svg width="136px" height="44px" viewBox="0 0 136 44" version="1.1" xmlns="http://www.w3.org/2000/svg" xmlns:xlink="http://www.w3.org/1999/xlink">
    <!-- Generator: Sketch 43.2 (39069) - http://www.bohemiancoding.com/sketch -->
    <title>Page 1</title>
    <desc>Created with Sketch.</desc>
    <defs>
        <polygon id="path-1" points="0.552241341 0.536491228 23.2616036 0.536491228 23.2616036 37.5626335 0.552241341 37.5626335 0.552241341 0.536491228"></polygon>
    </defs>
    <g id="Page-1" stroke="none" stroke-width="1" fill="none" fill-rule="evenodd">
        <g>
            <path d="M43.078,24.7686807 L33.6708182,24.7686807 C33.8794545,23.0696632 34.4226818,21.7488912 35.3020455,20.8063649 C36.1814091,19.8646105 37.2694091,19.3937333 38.5652727,19.3937333 C39.9075,19.3937333 40.9715455,19.8414526 41.7589545,20.7368912 C42.5455909,21.6331018 42.9852727,22.8959789 43.078,24.5262947 L43.078,24.7686807 Z M38.5652727,16.7583649 C37.0731364,16.7583649 35.6868636,17.1713474 34.4087727,17.9980842 C33.1299091,18.8248211 32.1346364,19.9688211 31.4229545,21.4308561 C30.7120455,22.8928912 30.3558182,24.5548561 30.3558182,26.4159789 L30.3558182,27.0049614 C30.3558182,29.8024351 31.1540455,32.0364 32.7512727,33.7060842 C34.3477273,35.3765404 36.4186364,36.2117684 38.9647727,36.2117684 C42.1120909,36.2117684 44.472,35.0044702 46.0460455,32.5883298 L44.0848636,31.0622246 C43.4945,31.8256632 42.806,32.4385754 42.0193636,32.9001895 C41.2319545,33.3625754 40.2722273,33.5941544 39.1378636,33.5941544 C37.5414091,33.5941544 36.2246818,33.0244702 35.19,31.8866456 C34.1537727,30.7480491 33.6128636,29.2543649 33.5665,27.4040491 L46.2886818,27.4040491 L46.2886818,26.0693825 C46.2886818,23.0758386 45.6117727,20.7747158 44.2579545,19.1683298 C42.9041364,17.5619439 41.0063182,16.7583649 38.5652727,16.7583649 L38.5652727,16.7583649 Z" id="Fill-1" fill="#FCFDFD"></path>
            <path d="M20.0464,16.7584421 C18.6809909,16.7584421 17.4979455,17.0355649 16.4972636,17.5905825 C15.4958091,18.1456 14.6836727,18.8735298 14.0585364,19.7751439 C13.1096273,17.7642667 11.3215364,16.7584421 8.69580909,16.7584421 C6.35830909,16.7584421 4.50067273,17.5681965 3.12444545,19.1861614 L3.03712727,17.1050386 L0.000309090909,17.1050386 L0.000309090909,35.8652491 L3.21099091,35.8652491 L3.21099091,22.1681263 C3.98603636,20.3764772 5.4264,19.4802667 7.53285455,19.4802667 C10.2057182,19.4802667 11.5417636,20.8442667 11.5417636,23.5722667 L11.5417636,35.8652491 L14.7702182,35.8652491 L14.7702182,23.4163368 C14.8969455,22.2144421 15.3544,21.2572491 16.1410364,20.5470737 C16.9276727,19.8353544 17.9175364,19.4802667 19.1090818,19.4802667 C20.5556273,19.4802667 21.5849,19.8129684 22.1984455,20.4776 C22.8119909,21.1430035 23.1187636,22.1457404 23.1187636,23.4858105 L23.1187636,35.8652491 L26.3294455,35.8652491 L26.3294455,23.2951439 C26.2599,18.9368281 24.1658091,16.7584421 20.0464,16.7584421" id="Fill-3" fill="#FCFDFD"></path>
            <path d="M89.2444364,19.7238105 C90.0766636,19.7516 90.8038,20.5134947 90.7960727,21.3479509 C90.7883455,22.1847228 90.0434364,22.9134246 89.1957545,22.9126526 C88.3426636,22.9118807 87.6178455,22.2032491 87.5962091,21.3487228 C87.5738,20.4926526 88.3836182,19.6944772 89.2444364,19.7238105 M89.1957545,23.0994596 C90.1423455,23.1002316 90.9745727,22.2866175 90.9830727,21.3510386 C90.9915727,20.4193193 90.1794364,19.5686526 89.2498455,19.5377754 C88.2885727,19.5045825 87.3844818,20.3961614 87.4092091,21.3525825 C87.4331636,22.3066877 88.2429818,23.0979158 89.1957545,23.0994596" id="Fill-5" fill="#FCFDFD"></path>
            <path d="M54.8281682,32.9259719 C54.5159864,32.5500421 54.3598955,31.9857614 54.3598955,31.2339018 L54.3598955,19.5847088 L57.8657591,19.5847088 L57.8657591,17.1052702 L54.3598955,17.1052702 L54.3598955,12.5624632 L51.1484409,12.5624632 L51.1484409,17.1052702 L47.7291227,17.1052702 L47.7291227,19.5847088 L51.1484409,19.5847088 L51.1484409,31.2184632 C51.1484409,32.8132702 51.5131682,34.0444982 52.24185,34.9113754 C52.9713045,35.7782526 54.0531227,36.2120772 55.4880773,36.2120772 C56.2863045,36.2120772 57.1077136,36.0970596 57.9523045,35.8677965 L57.9523045,33.2818316 C57.3039864,33.4207789 56.7947591,33.4894807 56.4246227,33.4894807 C55.6727591,33.4894807 55.14035,33.3019018 54.8281682,32.9259719" id="Fill-7" fill="#FCFDFD"></path>
            <path d="M72.7050591,30.6117263 C72.30015,31.4438667 71.6464227,32.1200772 70.7438773,32.6403579 C69.8413318,33.1606386 68.8870136,33.4207789 67.88015,33.4207789 C66.8269227,33.4207789 65.9645591,33.1374807 65.2938318,32.5708842 C64.6231045,32.0050596 64.2869682,31.2184632 64.2869682,30.2126386 C64.2869682,27.9130596 66.2543318,26.7628842 70.1882864,26.7628842 L72.7050591,26.7628842 L72.7050591,30.6117263 Z M75.9157409,22.8437965 C75.8693773,20.9479368 75.23265,19.4604281 74.0071045,18.3789544 C72.7800136,17.2990246 71.08465,16.7586737 68.9217864,16.7586737 C67.5556045,16.7586737 66.3030136,17.0134105 65.1640136,17.5213404 C64.0242409,18.0300421 63.1216955,18.7209193 62.4563773,19.5932 C61.7902864,20.4654807 61.4580136,21.3701825 61.4580136,22.3065333 L64.6864682,22.3065333 C64.6864682,21.4867439 65.0743773,20.7866035 65.8494227,20.2084281 C66.6244682,19.6302526 67.5849682,19.3415509 68.73015,19.3415509 C70.0376045,19.3415509 71.0274682,19.6742526 71.6981955,20.3388842 C72.3689227,21.0042877 72.7050591,21.8966386 72.7050591,23.0174807 L72.7050591,24.4910947 L69.5809227,24.4910947 C66.8848773,24.4910947 64.7931045,25.0314456 63.3063773,26.1121474 C61.81965,27.1928491 61.0762864,28.7104632 61.0762864,30.6634456 C61.0762864,32.2706035 61.6689682,33.5967789 62.8551045,34.6427439 C64.0412409,35.6887088 65.55965,36.2120772 67.4111045,36.2120772 C69.4827864,36.2120772 71.2646955,35.4378316 72.7568318,33.8885684 C72.8727409,34.8372702 73.0234227,35.4957263 73.2081045,35.8654807 L76.57565,35.8654807 L76.57565,35.587586 C76.1351955,34.5709544 75.9157409,33.2007789 75.9157409,31.4786035 L75.9157409,22.8437965 Z" id="Fill-9" fill="#FCFDFD"></path>
            <path d="M110.707555,34.8897614 C109.206145,34.8897614 107.918782,34.5524281 106.881782,33.8854807 C105.871055,33.2347439 105.128464,32.3076561 104.671782,31.1304632 L104.671782,22.4887088 C105.132327,21.0753053 105.879555,19.978393 106.894145,19.2273053 C107.919555,18.4669544 109.190691,18.0809895 110.672782,18.0809895 C112.488691,18.0809895 113.857964,18.7726386 114.860191,20.1960772 C115.878645,21.6442175 116.3956,23.696007 116.3956,26.2943228 C116.3956,29.1357965 115.881736,31.3126386 114.868691,32.7661825 C113.871873,34.1957965 112.510327,34.8897614 110.707555,34.8897614 M110.655782,16.3727088 C109.193782,16.3727088 107.867009,16.710814 106.713327,17.3777614 C105.925918,17.8332 105.242827,18.4299018 104.671782,19.1578316 L104.671782,16.7193053 L102.962509,16.7193053 L102.962509,43.463586 L104.671782,43.463586 L104.671782,34.1178316 C105.234327,34.7484982 105.916645,35.2749544 106.711009,35.6871649 C107.873191,36.291586 109.211555,36.5980421 110.690555,36.5980421 C112.984782,36.5980421 114.823873,35.675586 116.156827,33.8561474 C117.461191,32.0745333 118.123418,29.6522175 118.123418,26.6586737 L118.123418,26.3637965 C118.123418,23.2536912 117.460418,20.7927789 116.154509,19.0489895 C114.820782,17.2735509 112.970873,16.3727088 110.655782,16.3727088" id="Fill-11" fill="#FCFDFD"></path>
            <path d="M135.075586,28.6509474 C134.635905,27.929193 133.926541,27.302386 132.967586,26.7867368 C132.038768,26.2865263 130.768405,25.8488421 129.192041,25.4844912 C127.675177,25.134807 126.510677,24.7681404 125.730995,24.3945263 C124.98145,24.0363509 124.439768,23.638807 124.120632,23.2111579 C123.815405,22.8020351 123.660086,22.2115088 123.660086,21.4573333 C123.660086,20.5016842 124.08045,19.7243509 124.945132,19.0790175 C125.833768,18.4167018 127.070132,18.0809123 128.61945,18.0809123 C130.233677,18.0809123 131.554268,18.4784561 132.544905,19.2627368 C133.520086,20.0369825 133.995314,20.9702456 133.995314,22.1157895 L133.995314,22.5017544 L135.722359,22.5017544 L135.722359,22.1157895 C135.722359,20.3588772 135.05395,18.9408421 133.735677,17.9025965 C132.445223,16.8875088 130.723586,16.3726316 128.61945,16.3726316 C126.677586,16.3726316 125.071086,16.8481404 123.846314,17.7875789 C122.587541,18.7494035 121.950041,19.9960702 121.950041,21.4920702 C121.950041,22.9664561 122.45695,24.1475088 123.456859,25.0012632 C124.430495,25.8326316 126.081041,26.4864561 128.504314,27.0013333 C132.170905,27.7755789 134.029314,29.2121404 134.029314,31.2708772 C134.029314,32.2597193 133.56645,33.0856842 132.613677,33.7958596 C131.639268,34.5214737 130.341859,34.8896842 128.757768,34.8896842 C127.016041,34.8896842 125.626677,34.5423158 124.628314,33.8568421 C123.652359,33.186807 123.136177,32.2751579 123.051177,31.0701754 L123.025677,30.7112281 L121.342677,30.7112281 L121.342677,31.097193 C121.342677,32.7221053 122.046632,34.066807 123.43445,35.0911579 C124.785177,36.0915789 126.576359,36.5979649 128.757768,36.5979649 C130.800859,36.5979649 132.483859,36.1170526 133.761177,35.1691228 C135.074041,34.1957193 135.739359,32.8888421 135.739359,31.2878596 C135.739359,30.2604211 135.516041,29.3734737 135.075586,28.6509474" id="Fill-13" fill="#FCFDFD"></path>
            <path d="M86.2863591,25.1492421 C86.2824955,25.6124 85.8698591,26.0161193 85.4008136,26.0153474 C84.9279045,26.0145754 84.5276318,25.623207 84.5152682,25.150014 C84.5029045,24.6760491 84.9510864,24.2345053 85.4270864,24.2507158 C85.8876318,24.2661544 86.2902227,24.6876281 86.2863591,25.1492421 M84.3166773,25.1538737 C84.3313591,25.7328211 84.8220409,26.2129614 85.4000409,26.2137333 C85.97495,26.2137333 86.4803136,25.7204702 86.48495,25.1531018 C86.4903591,24.5872772 85.9973591,24.0716281 85.4332682,24.0523298 C84.8498591,24.0322596 84.3012227,24.5733825 84.3166773,25.1538737" id="Fill-15" fill="#FCFDFD"></path>
            <g id="Group-19" transform="translate(77.272727, 0.235825)">
                <mask id="mask-2" fill="white">
                    <use xlink:href="#path-1"></use>
                </mask>
                <g id="Clip-18"></g>
                <path d="M17.21165,16.1970175 C16.8260591,15.9986316 16.6815591,15.7886667 16.6838773,15.3424912 C16.7055136,11.4465614 16.6962409,7.55063158 16.6962409,3.65547368 L16.6962409,2.97694737 C17.2997409,2.97694737 17.8445136,2.99701754 18.3869682,2.97231579 C19.16665,2.93680702 19.6805136,2.41884211 19.6542409,1.73645614 C19.6279682,1.04866667 19.0924682,0.553859649 18.3321045,0.543824561 C17.4426955,0.532245614 16.5525136,0.536105263 15.6631045,0.542280702 C14.6948773,0.54845614 14.22815,1.00235088 14.2273773,1.96726316 C14.2219682,6.80803509 14.22815,11.6495789 14.2219682,16.4911228 C14.2204227,17.2252281 14.5364682,17.6907018 15.2288318,17.9577895 C16.61665,18.4927368 17.7803773,19.3588421 18.72465,20.5005263 C20.5312864,22.6843158 21.1278318,25.1861404 20.6657409,27.9812982 L3.22374091,27.9812982 C2.33587727,23.880807 4.62701364,19.5819298 8.50224091,18.0133684 C9.57015,17.5810877 9.74015,17.3332982 9.74015,16.1931579 L9.74015,2.29301754 C9.74015,2.12319298 9.74710455,1.95182456 9.73010455,1.78277193 C9.64974091,0.980736842 9.19615,0.553859649 8.39174091,0.543824561 C7.44592273,0.532245614 6.49855909,0.535333333 5.55274091,0.542280702 C4.72128636,0.54845614 4.18810455,1.00852632 4.16724091,1.71792982 C4.14483182,2.47364912 4.64787727,2.95070175 5.52028636,2.97617544 C6.08360455,2.99238596 6.64769545,2.97926316 7.27437727,2.97926316 L7.27437727,3.64621053 C7.27437727,7.52284211 7.26587727,11.4002456 7.28519545,15.2768772 C7.28674091,15.7168772 7.15692273,15.928386 6.75742273,16.1306316 C2.34746818,18.3607368 -0.131440909,23.2956842 0.717786364,28.0947719 C2.21146818,36.5358246 11.88215,40.3723158 18.7679227,35.2559649 C25.3878773,30.3364561 24.54715,19.976386 17.21165,16.1970175" id="Fill-17" fill="#FCFDFD" mask="url(#mask-2)"></path>
            </g>
        </g>
    </g>
</svg>